<svg xmlns="http://www.w3.org/2000/svg" width="500"  viewBox="0 0 375 375" height="375" version="1.0"><defs><clipPath id="a"><path d="M 118.128906 99.101562 L 256.878906 99.101562 L 256.878906 237.851562 L 118.128906 237.851562 Z M 118.128906 99.101562"/></clipPath></defs><g clip-path="url(#a)"><path fill="#FFF" d="M 253.949219 191.886719 C 252.496094 191.886719 251.320312 190.707031 251.320312 189.25 L 251.320312 108.367188 L 206.675781 153.125 C 205.644531 154.15625 203.980469 154.15625 202.953125 153.125 C 201.929688 152.09375 201.929688 150.425781 202.953125 149.394531 L 252.089844 100.136719 C 252.839844 99.382812 253.972656 99.15625 254.957031 99.566406 C 255.9375 99.972656 256.578125 100.933594 256.578125 102 L 256.578125 189.25 C 256.578125 190.707031 255.402344 191.886719 253.949219 191.886719 Z M 121.074219 237.851562 C 119.621094 237.851562 118.441406 236.671875 118.441406 235.214844 L 118.441406 143.289062 C 118.441406 142.222656 119.082031 141.257812 120.066406 140.851562 C 121.050781 140.441406 122.179688 140.667969 122.933594 141.421875 L 168.78125 187.386719 C 169.808594 188.417969 169.808594 190.085938 168.78125 191.117188 C 167.753906 192.144531 166.085938 192.144531 165.058594 191.117188 L 123.703125 149.652344 L 123.703125 235.214844 C 123.703125 236.671875 122.523438 237.851562 121.074219 237.851562 Z M 253.949219 237.851562 C 253.277344 237.851562 252.601562 237.59375 252.089844 237.078125 L 119.214844 103.867188 C 118.1875 102.835938 118.1875 101.167969 119.214844 100.136719 C 120.242188 99.109375 121.90625 99.109375 122.933594 100.136719 L 255.808594 233.351562 C 256.835938 234.378906 256.835938 236.050781 255.808594 237.078125 C 255.292969 237.59375 254.621094 237.851562 253.949219 237.851562"/></g></svg>