<svg width="0" height="0" class="hidden">
    <symbol xmlns="http://www.w3.org/2000/svg" enable-background="new 0 0 24 24" viewBox="0 0 24 24" id="logo">
        <path fill="#D7E1EC" d="M21.1,14.2l-0.2,0.2C20.3,15,20,15.8,20,16.6v0.3c0,1.7-1.4,3.1-3.1,3.1h-0.3c-0.8,0-1.6,0.3-2.2,0.9l-0.2,0.2
		c-1.2,1.1-3,1.2-4.2,0.2c0.1,0,0.1-0.1,0.2-0.2l0.2-0.2c0.6-0.6,1.4-0.9,2.2-0.9h0.3c1.7,0,3.1-1.4,3.1-3.1v-0.3
		c0-0.8,0.3-1.6,0.9-2.2l0.2-0.2c1.2-1.2,1.2-3.2,0-4.4l-0.2-0.2C16.3,9,16,8.2,16,7.4V7.1C16,5.4,14.6,4,12.9,4h-0.3
		c-0.8,0-1.6-0.3-2.2-0.9l-0.2-0.2c-0.1-0.1-0.1-0.1-0.2-0.2c1.2-1,3-1,4.2,0.2l0.2,0.2C15,3.7,15.8,4,16.6,4h0.3
		C18.6,4,20,5.4,20,7.1v0.3c0,0.8,0.3,1.6,0.9,2.2l0.2,0.2C22.3,11,22.3,13,21.1,14.2z"/><path fill="white" d="M12,4c0.3,0,0.6,0.1,0.8,0.3L13,4.5c1,1,2.2,1.5,3.6,1.5h0.3C17.5,6,18,6.5,18,7.1v0.3c0,1.4,0.5,2.6,1.5,3.6
			l0.2,0.2c0.2,0.2,0.3,0.5,0.3,0.8s-0.1,0.6-0.3,0.8L19.5,13c-1,1-1.5,2.2-1.5,3.6v0.3c0,0.6-0.5,1.1-1.1,1.1h-0.3
			c-1.4,0-2.6,0.5-3.6,1.5l-0.2,0.2C12.6,19.9,12.3,20,12,20s-0.6-0.1-0.8-0.3L11,19.5c-1-1-2.2-1.5-3.6-1.5H7.1
			C6.5,18,6,17.5,6,16.9v-0.3C6,15.2,5.5,14,4.5,13l-0.2-0.2C4.1,12.6,4,12.3,4,12s0.1-0.6,0.3-0.8L4.5,11C5.5,10,6,8.8,6,7.4V7.1
			C6,6.5,6.5,6,7.1,6h0.3C8.8,6,10,5.5,11,4.5l0.2-0.2C11.4,4.1,11.7,4,12,4 M12,2c-0.8,0-1.6,0.3-2.2,0.9L9.6,3.1
			C9,3.7,8.2,4,7.4,4H7.1C5.4,4,4,5.4,4,7.1v0.3C4,8.2,3.7,9,3.1,9.6L2.9,9.8c-1.2,1.2-1.2,3.2,0,4.4l0.2,0.2C3.7,15,4,15.8,4,16.6
			v0.3C4,18.6,5.4,20,7.1,20h0.3c0.8,0,1.6,0.3,2.2,0.9l0.2,0.2c0.6,0.6,1.4,0.9,2.2,0.9s1.6-0.3,2.2-0.9l0.2-0.2
			c0.6-0.6,1.4-0.9,2.2-0.9h0.3c1.7,0,3.1-1.4,3.1-3.1v-0.3c0-0.8,0.3-1.6,0.9-2.2l0.2-0.2c1.2-1.2,1.2-3.2,0-4.4l-0.2-0.2
			C20.3,9,20,8.2,20,7.4V7.1C20,5.4,18.6,4,16.9,4h-0.3c-0.8,0-1.6-0.3-2.2-0.9l-0.2-0.2C13.6,2.3,12.8,2,12,2L12,2z"/><path fill="none" stroke="white" stroke-linecap="round" stroke-miterlimit="10" stroke-width="2" d="M10,10.6V9.9c0-1,0.8-1.9,1.7-1.9h0.9c1,0,1.7,0.8,1.7,1.9v0c0,0.5-0.2,0.9-0.5,1.2l-1.1,0.7
		c-0.5,0.3-0.9,0.9-0.9,1.6V14"/><path fill="white" d="M12,18L12,18c-0.6,0-1-0.4-1-1v0c0-0.6,0.4-1,1-1h0c0.6,0,1,0.4,1,1v0C13,17.6,12.6,18,12,18z"/>
    </symbol>
    <symbol xmlns="http://www.w3.org/2000/svg" id="trash" viewBox="0 0 32 32">
        <path d="M4 10v20c0 1.1 0.9 2 2 2h18c1.1 0 2-0.9 2-2v-20h-22zM10 28h-2v-14h2v14zM14 28h-2v-14h2v14zM18 28h-2v-14h2v14zM22 28h-2v-14h2v14z"></path>
        <path d="M26.5 4h-6.5v-2.5c0-0.825-0.675-1.5-1.5-1.5h-7c-0.825 0-1.5 0.675-1.5 1.5v2.5h-6.5c-0.825 0-1.5 0.675-1.5 1.5v2.5h26v-2.5c0-0.825-0.675-1.5-1.5-1.5zM18 4h-6v-1.975h6v1.975z"></path>
    </symbol>
    <symbol xmlns="http://www.w3.org/2000/svg" enable-background="new 0 0 32 32" viewBox="0 0 32 32" id="analysis">
        <path d="M22,9c-4.962,0-9,4.037-9,9c0,4.625,3.507,8.441,8,8.941V28c0,0.552-0.449,1-1,1H4c-0.551,0-1-0.448-1-1V10h4
		c1.654,0,3-1.346,3-3V3h10c0.551,0,1,0.448,1,1v3c0,0.553,0.448,1,1,1s1-0.447,1-1V4c0-1.654-1.346-3-3-3H9
		C8.867,1,8.736,1.027,8.615,1.077C8.494,1.128,8.384,1.202,8.292,1.294L1.294,8.292C1.202,8.384,1.128,8.493,1.078,8.615
		C1.027,8.735,1,8.866,1,9v19c0,1.654,1.346,3,3,3h16c1.654,0,3-1.346,3-3v-1.059c4.493-0.5,8-4.316,8-8.941
		C31,13.037,26.962,9,22,9z M8,4.414V7c0,0.552-0.449,1-1,1H4.414L8,4.414z M28.92,17h-4.506l3.184-3.185
		C28.284,14.731,28.75,15.817,28.92,17z M22,11c1.57,0,3.016,0.525,4.184,1.401L22,16.586l-4.184-4.185
		C18.984,11.525,20.43,11,22,11z M22,25c-3.86,0-7-3.141-7-7c0-1.569,0.526-3.016,1.402-4.185l4.891,4.891
		c0.092,0.093,0.203,0.166,0.326,0.217C21.74,18.974,21.87,19,22,19h6.92C28.432,22.387,25.52,25,22,25z"></path>
        <path d="M10 12H6c-.552 0-1 .447-1 1s.448 1 1 1h4c.552 0 1-.447 1-1S10.552 12 10 12zM10 16H6c-.552 0-1 .447-1 1s.448 1 1 1h4c.552 0 1-.447 1-1S10.552 16 10 16zM10 20H6c-.552 0-1 .447-1 1s.448 1 1 1h4c.552 0 1-.447 1-1S10.552 20 10 20z"></path>
    </symbol>
    <symbol xmlns="http://www.w3.org/2000/svg" viewBox="0 0 24 24" id="dashboard">
        <path fill="none" d="M0 0h24v24H0V0z"></path>
        <path d="M4 13h6c.55 0 1-.45 1-1V4c0-.55-.45-1-1-1H4c-.55 0-1 .45-1 1v8c0 .55.45 1 1 1zm0 8h6c.55 0 1-.45 1-1v-4c0-.55-.45-1-1-1H4c-.55 0-1 .45-1 1v4c0 .55.45 1 1 1zm10 0h6c.55 0 1-.45 1-1v-8c0-.55-.45-1-1-1h-6c-.55 0-1 .45-1 1v8c0 .55.45 1 1 1zM13 4v4c0 .55.45 1 1 1h6c.55 0 1-.45 1-1V4c0-.55-.45-1-1-1h-6c-.55 0-1 .45-1 1z"></path>
    </symbol>
    <symbol xmlns="http://www.w3.org/2000/svg" fill-rule="evenodd" stroke-linejoin="round" stroke-miterlimit="2"
            clip-rule="evenodd" viewBox="0 0 48 48" id="group">
        <path d="M155.469,79.103C155.009,79.037 154.52,79 154,79C150.17,79 148.031,81.021 147.211,82.028C147.078,82.201 147.007,82.413 147.007,82.632C147.007,82.638 147.007,82.644 147.006,82.649C147,83.019 147,83.509 147,84C147,84.552 147.448,85 148,85L155.172,85C155.059,84.682 155,84.344 155,84C155,84 155,84 155,84C155,82.862 155,81.506 155.004,80.705C155.004,80.135 155.167,79.58 155.469,79.103ZM178,85L158,85C157.735,85 157.48,84.895 157.293,84.707C157.105,84.52 157,84.265 157,84C157,82.865 157,81.515 157.004,80.711C157.004,80.709 157.004,80.707 157.004,80.705C157.004,80.475 157.084,80.253 157.229,80.075C158.47,78.658 162.22,75 168,75C174.542,75 177.827,78.651 178.832,80.028C178.943,80.197 179,80.388 179,80.583L179,84C179,84.265 178.895,84.52 178.707,84.707C178.52,84.895 178.265,85 178,85ZM180.828,85L188,85C188.552,85 189,84.552 189,84L189,82.631C189,82.41 188.927,82.196 188.793,82.021C187.969,81.021 185.829,79 182,79C181.507,79 181.042,79.033 180.604,79.093C180.863,79.546 181,80.06 181,80.585L181,84C181,84.344 180.941,84.682 180.828,85ZM154,67C151.24,67 149,69.24 149,72C149,74.76 151.24,77 154,77C156.76,77 159,74.76 159,72C159,69.24 156.76,67 154,67ZM182,67C179.24,67 177,69.24 177,72C177,74.76 179.24,77 182,77C184.76,77 187,74.76 187,72C187,69.24 184.76,67 182,67ZM168,59C164.137,59 161,62.137 161,66C161,69.863 164.137,73 168,73C171.863,73 175,69.863 175,66C175,62.137 171.863,59 168,59Z"
              transform="translate(-144 -48)"></path>
    </symbol>
    <symbol xmlns="http://www.w3.org/2000/svg" viewBox="0 0 24 24" id="messages">
        <path d="M17,21.63H5a3,3,0,0,1-3-3v-8a1,1,0,0,0-2,0v8a5,5,0,0,0,5,5H17a1,1,0,0,0,0-2Zm4-18H7a3,3,0,0,0-3,3v10a3,3,0,0,0,3,3H21a3,3,0,0,0,3-3v-10A3,3,0,0,0,21,3.63Zm-.41,2-5.88,5.88a1,1,0,0,1-1.42,0L7.41,5.63Zm1.41,11a1,1,0,0,1-1,1H7a1,1,0,0,1-1-1V7l5.88,5.88a3,3,0,0,0,4.24,0L22,7Z"></path>
    </symbol>
    <symbol xmlns="http://www.w3.org/2000/svg" viewBox="0 0 24 24" id="notification">
        <path fill="white"
              d="M9.66385809,17.0850308 C10.1612052,17.0997055 10.6494874,17.2209963 11.0952733,17.4405986 L11.0952733,17.4405986 L11.1221123,17.4405986 C11.4945539,17.7444568 11.5578428,18.2868367 11.2652539,18.6673073 C10.7325,19.4297129 9.88007929,19.9104286 8.94815048,19.9740188 C7.99068936,20.0881969 7.02648958,19.8231391 6.26424693,19.2362157 C5.87223416,18.9673952 5.61748007,18.5422722 5.56643201,18.0717313 C5.56643201,17.5739365 6.03164196,17.3428174 6.46106652,17.2450363 C6.96403775,17.1390934 7.47674317,17.0854692 7.99089154,17.0850308 L7.99089154,17.0850308 Z M8.5366186,-1.59872116e-14 C11.632054,-1.59872116e-14 14.8258992,2.24007688 15.156914,5.48463268 C15.2105921,6.15132223 15.156914,6.84467936 15.2105921,7.5202581 C15.3862376,8.39147523 15.7905529,9.20107362 16.3825633,9.86700531 C16.7506233,10.4142844 16.9638305,11.04982 16.9999314,11.7070685 L16.9999314,11.7070685 L16.9999314,11.9115199 C17.0053658,12.7983874 16.6875755,13.6572551 16.1052266,14.3293807 C15.3671354,15.1185689 14.3656784,15.6145192 13.2871279,15.7249841 C10.1005486,16.1338607 6.87427876,16.1338607 3.68769953,15.7249841 C2.59644926,15.6229087 1.58089806,15.1262849 0.833815425,14.3293807 C0.269727524,13.6508093 -0.0260731338,12.7911986 0.00180532602,11.9115199 L0.00180532602,11.7070685 C0.0367179505,11.0522761 0.243355163,10.417938 0.601210451,9.86700531 C1.19585108,9.20045914 1.60588236,8.3917618 1.79107436,7.5202581 C1.84475243,6.84467936 1.79107436,6.16021142 1.84475243,5.48463268 C2.18471354,2.24007688 5.31593434,-1.59872116e-14 8.44715515,-1.59872116e-14 L8.44715515,-1.59872116e-14 Z"
              transform="translate(3.5 2)"></path>
    </symbol>
    <symbol xmlns="http://www.w3.org/2000/svg" viewBox="0 0 24 24" id="setting">
        <path fill="white"
              d="M10.2143,0.0004 C10.7643,-0.0096 11.2853,0.1894 11.6743,0.5704 C12.0653,0.9394 12.2743,1.4504 12.2743,1.9904 C12.2743,3.0904 13.1843,3.9814 14.3153,3.9814 C14.6643,3.9814 15.0143,3.8804 15.3253,3.7104 C16.2943,3.1894 17.5043,3.5204 18.0543,4.4504 L18.0543,4.4504 L18.7353,5.6204 C18.9053,5.9204 19.0043,6.2604 19.0043,6.6104 C19.0043,7.3204 18.6153,7.9814 17.9853,8.3304 C17.6743,8.5004 17.4143,8.7604 17.2353,9.0614 C16.7043,10.0004 17.0353,11.1894 17.9853,11.7314 C18.9443,12.2804 19.2743,13.4814 18.7353,14.4304 L18.7353,14.4304 L18.0543,15.5614 C17.6943,16.1804 17.0243,16.5614 16.3043,16.5614 C15.9443,16.5614 15.5843,16.4704 15.2853,16.2904 C14.9643,16.1204 14.6153,16.0204 14.2643,16.0204 C13.7243,16.0204 13.2043,16.2314 12.8253,16.6104 C12.4343,16.9814 12.2243,17.4904 12.2243,18.0204 C12.2243,19.1104 11.3153,20.0004 10.1843,20.0004 L10.1843,20.0004 L8.8153,20.0004 C8.2743,20.0004 7.7643,19.7804 7.3943,19.4104 C7.0143,19.0304 6.8153,18.5304 6.8153,18.0104 C6.8153,16.9104 5.9143,16.0204 4.7853,16.0204 C4.4143,16.0204 4.0543,16.1204 3.7443,16.3114 C3.2743,16.5704 2.7143,16.6404 2.1943,16.5104 C1.6743,16.3704 1.2243,16.0304 0.9543,15.5804 L0.9543,15.5804 L0.3153,14.4504 C0.0143,13.9814 -0.0757,13.4204 0.0653,12.8904 C0.2043,12.3604 0.5653,11.9104 1.0543,11.6404 C1.3653,11.4704 1.6243,11.2204 1.8043,10.9104 C2.3253,9.9704 1.9943,8.7904 1.0543,8.2404 C0.1043,7.7004 -0.2257,6.5104 0.3153,5.5704 L0.3153,5.5704 L0.9543,4.4504 C1.2243,3.9814 1.6743,3.6404 2.2043,3.5004 C2.7353,3.3604 3.2943,3.4394 3.7643,3.7104 C4.0843,3.8804 4.4343,3.9704 4.7853,3.9704 C5.3253,3.9704 5.8443,3.7604 6.2243,3.3904 C6.6043,3.0204 6.8153,2.5104 6.8153,1.9904 C6.8153,0.8904 7.7243,0.0004 8.8543,0.0004 L8.8543,0.0004 Z M10.6153,7.4814 C9.5653,7.0504 8.3543,7.2804 7.5443,8.0704 C6.7443,8.8504 6.4943,10.0404 6.9343,11.0614 C7.3653,12.0904 8.3843,12.7604 9.5243,12.7604 L9.5243,12.7604 L9.5353,12.7604 C10.2853,12.7704 10.9853,12.4814 11.5143,11.9604 C12.0443,11.4504 12.3443,10.7504 12.3443,10.0204 C12.3543,8.9104 11.6643,7.9004 10.6153,7.4814 Z"
              transform="translate(2.5 2)"></path>
    </symbol>
    <symbol xmlns="http://www.w3.org/2000/svg" viewBox="0 0 24 24" id="subject">
        <path fill="none" d="M0 0h24v24H0V0z"></path>
        <path d="M13 17H5c-.55 0-1 .45-1 1s.45 1 1 1h8c.55 0 1-.45 1-1s-.45-1-1-1zm6-8H5c-.55 0-1 .45-1 1s.45 1 1 1h14c.55 0 1-.45 1-1s-.45-1-1-1zM5 15h14c.55 0 1-.45 1-1s-.45-1-1-1H5c-.55 0-1 .45-1 1s.45 1 1 1zM4 6c0 .55.45 1 1 1h14c.55 0 1-.45 1-1s-.45-1-1-1H5c-.55 0-1 .45-1 1z"></path>
    </symbol>
    <symbol xmlns="http://www.w3.org/2000/svg" viewBox="0 0 24 24" id="test">
        <path fill="none" d="M0 0h24v24H0V0z"></path>
        <path d="M19 3h-4.18C14.4 1.84 13.3 1 12 1s-2.4.84-2.82 2H5c-1.1 0-2 .9-2 2v14c0 1.1.9 2 2 2h14c1.1 0 2-.9 2-2V5c0-1.1-.9-2-2-2zm-7 0c.55 0 1 .45 1 1s-.45 1-1 1-1-.45-1-1 .45-1 1-1zM9.29 16.29L6.7 13.7c-.39-.39-.39-1.02 0-1.41.39-.39 1.02-.39 1.41 0L10 14.17l5.88-5.88c.39-.39 1.02-.39 1.41 0 .39.39.39 1.02 0 1.41l-6.59 6.59c-.38.39-1.02.39-1.41 0z"></path>
    </symbol>
    <symbol id="icon-cog" viewBox="0 0 32 32" xmlns="http://www.w3.org/2000/svg" >
        <path d="M29.181 19.070c-1.679-2.908-0.669-6.634 2.255-8.328l-3.145-5.447c-0.898 0.527-1.943 0.829-3.058 0.829-3.361 0-6.085-2.742-6.085-6.125h-6.289c0.008 1.044-0.252 2.103-0.811 3.070-1.679 2.908-5.411 3.897-8.339 2.211l-3.144 5.447c0.905 0.515 1.689 1.268 2.246 2.234 1.676 2.903 0.672 6.623-2.241 8.319l3.145 5.447c0.895-0.522 1.935-0.82 3.044-0.82 3.35 0 6.067 2.725 6.084 6.092h6.289c-0.003-1.034 0.259-2.080 0.811-3.038 1.676-2.903 5.399-3.894 8.325-2.219l3.145-5.447c-0.899-0.515-1.678-1.266-2.232-2.226zM16 22.479c-3.578 0-6.479-2.901-6.479-6.479s2.901-6.479 6.479-6.479c3.578 0 6.479 2.901 6.479 6.479s-2.901 6.479-6.479 6.479z"></path>
    </symbol>
    <symbol id="edit" viewBox="0 0 32 32" xmlns="http://www.w3.org/2000/svg">
        <path d="M27 0c2.761 0 5 2.239 5 5 0 1.126-0.372 2.164-1 3l-2 2-7-7 2-2c0.836-0.628 1.874-1 3-1zM2 23l-2 9 9-2 18.5-18.5-7-7-18.5 18.5zM22.362 11.362l-14 14-1.724-1.724 14-14 1.724 1.724z"></path>
        </symbol>
        <symbol id="cancel" viewBox="0 0 32 32" xmlns="http://www.w3.org/2000/svg">
        <path d="M16 0c-8.837 0-16 7.163-16 16s7.163 16 16 16 16-7.163 16-16-7.163-16-16-16zM16 29c-7.18 0-13-5.82-13-13s5.82-13 13-13 13 5.82 13 13-5.82 13-13 13z"></path>
        <path d="M21 8l-5 5-5-5-3 3 5 5-5 5 3 3 5-5 5 5 3-3-5-5 5-5z"></path>
        </symbol>
        <symbol id="up" viewBox="0 0 32 32" xmlns="http://www.w3.org/2000/svg">
        <path d="M0 16c0 8.837 7.163 16 16 16s16-7.163 16-16-7.163-16-16-16-16 7.163-16 16zM29 16c0 7.18-5.82 13-13 13s-13-5.82-13-13 5.82-13 13-13 13 5.82 13 13z"></path>
        <path d="M22.086 20.914l2.829-2.829-8.914-8.914-8.914 8.914 2.828 2.828 6.086-6.086z"></path>
        </symbol>
        <symbol id="down" viewBox="0 0 32 32" xmlns="http://www.w3.org/2000/svg">
        <path d="M32 16c0-8.837-7.163-16-16-16s-16 7.163-16 16 7.163 16 16 16 16-7.163 16-16zM3 16c0-7.18 5.82-13 13-13s13 5.82 13 13-5.82 13-13 13-13-5.82-13-13z"></path>
        <path d="M9.914 11.086l-2.829 2.829 8.914 8.914 8.914-8.914-2.828-2.828-6.086 6.086z"></path>
        </symbol>
        <symbol id="add" viewBox="0 0 18 18" xmlns="http://www.w3.org/2000/svg">
        <path d="M9 1c-4.418 0-8 3.582-8 8s3.582 8 8 8 8-3.582 8-8-3.582-8-8-8zM9 15c-3.309 0-6-2.691-6-6s2.691-6 6-6 6 2.691 6 6-2.691 6-6 6z"></path>
        <path d="M12.010 8h-2.010v-2.010c0-0.547-0.443-0.99-0.99-0.99h-0.020c-0.547 0-0.99 0.443-0.99 0.99v2.010h-2.010c-0.547 0-0.99 0.443-0.99 0.99v0.020c0 0.547 0.443 0.99 0.99 0.99h2.010v2.010c0 0.547 0.443 0.99 0.99 0.99h0.020c0.547 0 0.99-0.443 0.99-0.99v-2.010h2.010c0.547 0 0.99-0.443 0.99-0.99v-0.020c-0-0.547-0.443-0.99-0.99-0.99z"></path>
        </symbol>
</svg>