<svg xmlns="http://www.w3.org/2000/svg" enable-background="new 0 0 3000 3000" viewBox="0 0 3000 3000"><path fill="#e4e5f4" d="M2020.38,527.26c-342.12,0-619.28,277.45-619.28,619.57c0,342.12,277.16,619.57,619.28,619.57
		c342.4,0,619.57-277.45,619.57-619.57C2639.95,804.71,2362.78,527.26,2020.38,527.26z M2020.38,1578.39
		c-238.14,0-431.28-193.42-431.28-431.56c0-238.42,193.13-431.56,431.28-431.56c238.42,0,431.56,193.13,431.56,431.56
		C2451.94,1384.97,2258.81,1578.39,2020.38,1578.39z"/><path fill="#797dff" d="M1252.23,528.69c19.73-12.96,36.71-10.78,49.26-6.72c-2.53,1.75-5.05,3.52-7.56,5.28
			c0.75,2.12,1.49,4.23,2.23,6.35c0.03-0.03-21.43-6.44-32.15-0.43c-0.43-1.53-0.87-3.07-1.31-4.6
			C1262.71,528.58,1258.47,527.03,1252.23,528.69z"/><path fill="#b8bdf4" d="M1493.92 482.83c-.02-.02 15.37-7.54 16.74-10.86.82 1.03 1.63 2.06 2.44 3.08 1.07.32 2.14.65 3.2.97 0 0-8.28 7.81-16.56 12.09-.49-1.06-.99-2.11-1.48-3.17C1496.81 484.24 1495.37 483.54 1493.92 482.83zM1354.23 481.85c0 0-9.07-2.49-15.77-9.12 1.39-.8 2.79-1.59 4.19-2.38.22-1.37.43-2.75.65-4.12.01-.01 13.28 6.7 18.3 7.36-.33 1.73-.65 3.46-.98 5.19C1358.48 479.8 1356.35 480.82 1354.23 481.85z"/><path fill="#797dff" d="M1252.43,453.3c0,0,5.05,5.43,12.63,8.56c0.21-1.11,0.42-2.22,0.63-3.33c0.95-0.16,1.89-0.32,2.84-0.47
			c0,0-6.48-2.09-10.06-5.79c-0.4,0.57-0.8,1.13-1.2,1.7C1255.66,453.74,1254.05,453.52,1252.43,453.3z"/><path fill="#b8bdf4" d="M1405.88,584.72c0.06-0.03-18.1-18.33-21.16-20.25c2.03,0.31,4.05,0.62,6.08,0.94
			c0.04-1.62,0.08-3.24,0.11-4.86c0.07-0.04,20.63,17.41,23.06,19.07c-1.69,0.35-3.37,0.7-5.05,1.06
			C1407.9,582.03,1406.89,583.37,1405.88,584.72z"/><path fill="#eff0f9" d="M2210.72,943.31c0.09-0.76,0.64-1.42,1.43-1.62c1.01-0.24,2.02,0.38,2.27,1.39
				c0.13,0.55,14.75,55.65,119.41,45.13c37.35-3.75,68.14-12.4,95.3-20.02c50.22-14.1,83.41-23.41,105.31,16.31
				c0.5,0.91,0.18,2.06-0.74,2.56s-2.05,0.17-2.56-0.74c-20.47-37.12-50.78-28.61-101-14.51c-25.96,7.29-58.27,16.35-95.94,20.14
				c-108.15,10.87-123.3-47.41-123.45-48C2210.71,943.74,2210.7,943.52,2210.72,943.31z"/><path fill="#e4e5f4" d="M610.92,2352.19c0,0-9.31-64.24-96.77-46.73C514.15,2305.46,541.99,2386.78,610.92,2352.19z"/><path fill="#b8bdf4" d="M518.08,2308.22l22.95,13.17c7.66,4.35,15.33,8.68,23.09,12.81c3.87,2.09,7.76,4.13,11.7,6.09
						c3.92,1.99,7.88,3.88,11.88,5.68c4.01,1.77,8.06,3.47,12.21,4.87c4.13,1.42,8.4,2.56,12.83,2.58c-2.19,0.25-4.45,0.25-6.64-0.1
						c-2.21-0.27-4.39-0.75-6.55-1.28c-4.3-1.13-8.5-2.6-12.62-4.23c-8.25-3.27-16.2-7.21-24.01-11.36
						c-7.78-4.2-15.43-8.65-22.9-13.36C532.52,2318.41,525.19,2313.46,518.08,2308.22z" opacity=".52"/><path fill="#21267f" d="M2294.44,977.65c0,0,21.13-16.75,9.15-48.69c-11.98-31.94-17.87-26.3-2.33-64.68
			c15.54-38.37-54.47-95.37-93.51-82.5c0,0-42.67-27.76-79.51,10.44c-58.23,60.37,15.12,127.8-3.22,156.98
			c-18.34,29.18-21.4,6.21-42.18,23.3c-20.78,17.09-9.78,79.37,70.51,65.68s36.87-12.16,94.47-1.13
			C2305.41,1048.08,2294.44,977.65,2294.44,977.65z"/><path fill="#21267f" d="M2282.98,994.98c-12.51-3.31-26.8-7.52-30.95-21.37c-1.08-3.61-1.54-7.74-1.37-11.5
			c0.16-3.55,1.88-6.81,2.03-10.34c0.2-4.77-4.12-8.96-6.87-12.44c-2.4-3.04-4.47-6.14-6.18-9.62c-5.79-11.76-7.26-24.37-8.35-37.09
			c-2.39,4.61-5.44,8.9-9.15,12.72c-22.62,23.36-66.8,30.89-97.08,15.58c3.38,11.34,4.51,21.01-0.06,28.3
			c-18.34,29.18-21.4,6.21-42.17,23.3c-20.78,17.09-9.78,79.37,70.51,65.68c80.29-13.69,36.87-12.16,94.47-1.13
			c37.25,7.13,45.81-19.8,47.21-39.72C2290.94,996.72,2286.89,996.01,2282.98,994.98z" opacity=".5"/><path fill="#eff0f9" d="M1457.82 2440.9c0 9.42-60.9 17.06-136.04 17.06-75.13 0-136.03-7.64-136.03-17.06 0-9.42 60.9-17.06 136.03-17.06C1396.91 2423.84 1457.82 2431.47 1457.82 2440.9zM691.25 2606.65c-24.39-5.16 154.48-27.4 306.42-15.11 107.01 8.65 173.21 18.05 173.21 18.05s-175.66 21.75-240.73 20.81C865.08 2629.45 838.68 2637.83 691.25 2606.65zM1870.55 2587.23c18.05-6.15-117.07 12.64-231.06-2.53-112.56-14.98-129.16 25.13-129.16 25.13s133.17 14.52 182.01 10.91C1741.18 2617.13 1761.47 2624.4 1870.55 2587.23z"/><path fill="#e4e5f4" d="M252.84,2358.1c-10.79-5.29,317.23,14.42,461.42-26.44c144.19-40.86,610.42-2.4,927.65,0
			c317.23,2.4,254.54-21.61,486.3-17.81c405.65,6.65,489.64,6.65,619.19,30.83c0,0-377.31,63.04-627.25,19
			c-249.94-44.04-213.89,4.03-531.12,23.25c-317.23,19.23-199.47-14.42-468.63,0C851.25,2401.36,370.6,2415.78,252.84,2358.1z"/><path fill="#e5c9c3" d="M1032.23,2054.45c-16.08,24.12-169.53,543.94-169.53,543.94H990.4c0,0,197.96-484.97,196.29-519.82
				C1185.02,2043.73,1032.23,2054.45,1032.23,2054.45z"/><path fill="#e5c9c3" d="M1025.66,2171.71c19.27,9.39,40.58,13.37,61.78,15.34c14.86,1.38,33.21,2.15,41.57,16.77
				c7.96,13.91,3.02,32.91-5.67,45.23c-8.88,12.59-21.72,21.81-30.14,34.76c-7.13,10.97-8.21,22.49-6.67,35.07
				c1.15,9.39,2.67,18.79,4.39,28.16c48.68-124.18,96.58-251.25,95.75-268.47c-1.67-34.85-154.45-24.12-154.45-24.12
				c-4.09,6.13-17.05,44.3-34.1,97.78C1006.19,2160.06,1015.37,2166.69,1025.66,2171.71z" opacity=".65"/><path fill="#e5c9c3" d="M987.33 2301.72c-11.15 8.46 41.55-125.98 50.93-136.7C1047.64 2154.3 1006.77 2286.98 987.33 2301.72zM1015.92 2404.25c.67-2.68 28.81-109.23 50.93-130C1088.96 2253.47 1015.92 2404.25 1015.92 2404.25zM929.94 2495.05c0 0 27.47-93.82 40.88-124.64C970.82 2370.41 949.37 2469.59 929.94 2495.05zM962.54 2570.44c0 0 48.55-109.23 69.84-150.78C1032.38 2419.66 985.99 2555.7 962.54 2570.44z" opacity=".65"/><path fill="#e5c9c3" d="M1243.81,1913.57c-7.27,28.07,17.37,534.29,17.37,534.29l121.75-6.78c0,0,27.71-523.08,14.69-555.45
				C1384.6,1853.27,1243.81,1913.57,1243.81,1913.57z"/><path fill="#e5c9c3" d="M1277.53,2179.16c6.27,3.2,13.03,6.89,20.07,7.91c6.19,0.9,12.47,1.06,18.67,1.93
				c10.4,1.46,19.12,6,25.43,14.63c6.02,8.23,8.22,18.22,8.88,28.23c0.69,10.44-0.07,20.99,1.31,31.38
				c1.52,11.49,7.22,20.43,15.53,28.26c7.11,6.7,15.05,12.56,21.9,19.54c7.28-157.18,17.1-403.52,8.3-425.41
				c-13.02-32.37-153.81,27.94-153.81,27.94c-3.36,12.99,0.11,128.41,4.81,248.65C1258.09,2168.16,1267.58,2174.08,1277.53,2179.16z
				" opacity=".65"/><path fill="#e5c9c3" d="M1282.61 2161.88c-7.75 11.65-2.13-132.64 3.21-145.85C1291.16 2002.82 1296.12 2141.57 1282.61 2161.88zM1343.28 2249.33c-.25-2.75-8.66-112.63 5.41-139.52C1362.75 2082.93 1343.28 2249.33 1343.28 2249.33zM1291.89 2363.33c0 0-4.86-97.64-2.32-131.15C1289.57 2232.18 1301.89 2332.9 1291.89 2363.33zM1347.44 2423.84c0 0 9.98-119.12 16.45-165.35C1363.89 2258.48 1364.75 2402.21 1347.44 2423.84z" opacity=".65"/><path fill="#e5c9c3" d="M1583.61,2054.45c16.08,24.12,169.52,543.94,169.52,543.94h-127.69c0,0-197.96-484.97-196.29-519.82
				C1430.82,2043.73,1583.61,2054.45,1583.61,2054.45z"/><path fill="#e5c9c3" d="M1590.18,2171.71c-19.27,9.39-40.58,13.37-61.78,15.34c-14.86,1.38-33.21,2.15-41.57,16.77
				c-7.96,13.91-3.02,32.91,5.67,45.23c8.87,12.59,21.72,21.81,30.14,34.76c7.13,10.97,8.21,22.49,6.67,35.07
				c-1.15,9.39-2.67,18.79-4.39,28.16c-48.68-124.18-96.58-251.25-95.75-268.47c1.67-34.85,154.45-24.12,154.45-24.12
				c4.09,6.13,17.05,44.3,34.1,97.78C1609.65,2160.06,1600.47,2166.69,1590.18,2171.71z" opacity=".65"/><path fill="#e5c9c3" d="M1628.51 2301.72c11.15 8.46-41.55-125.98-50.93-136.7C1568.2 2154.3 1609.07 2286.98 1628.51 2301.72zM1599.93 2404.25c-.67-2.68-28.82-109.23-50.93-130C1526.88 2253.47 1599.93 2404.25 1599.93 2404.25zM1685.9 2495.05c0 0-27.48-93.82-40.88-124.64C1645.02 2370.41 1666.47 2469.59 1685.9 2495.05zM1653.3 2570.44c0 0-48.55-109.23-69.84-150.78C1583.46 2419.66 1629.85 2555.7 1653.3 2570.44z" opacity=".65"/><path fill="#efd9d3" d="M1986.14,2569.64c0,0-3.9-58.83,4.59-62.19c8.49-3.35,28.7-3.57,32.84,0.67
					c4.14,4.24-8.68,65.73-16.79,73.18S1989.23,2585.34,1986.14,2569.64z"/><path fill="#21267f" d="M1924.2,2603.93c0,0-1.48,8.44,5.6,13.12c17.58,11.62,80.75,8.73,84.46,3.37
					c3.71-5.36,3.49-12.73,3.49-12.73L1924.2,2603.93z"/><path fill="#3339ae" d="M1992.25,2549.56c0,0,15.96,2.26,23.54,0.45c6.88-1.64,5.75,57.95-0.59,64.35
					c-6.34,6.4-45.09-3.9-45.09-3.9s6.78-13.49,11.73-29.51C1986.79,2564.95,1977.05,2550.88,1992.25,2549.56z"/><path fill="#21267f" d="M1973.96,2570.53c0,0-10.44-27.83,1.06-28.8c11.5-0.98,14.52,1.3,20.36,5.84c5.84,4.54-7,23.51-8.5,26.42
					C1985.39,2576.9,1973.96,2570.53,1973.96,2570.53z"/><path fill="#21267f" d="M1955.37,2585.88c0,0,13.95,2.76,18.36,10.89c4.4,8.14,21.64-14.51,18.46-23.48
					c-3.17-8.96-21.46-5.09-21.46-5.09S1972.16,2585.08,1955.37,2585.88z"/><path fill="#606ae8" d="M1925.12,2609.38c9.28,9.49,44.3,15.29,52.53,7.57c8.23-7.73,3.55-40.07-29.32-36.6
					C1934.79,2581.78,1918.62,2602.74,1925.12,2609.38z"/><path fill="#fff" d="M1954.06 2582.68c-4.42-.23-8.06.42-11.01 1.68.85 1.68 1.78 3.3 2.8 4.87 3.46-1.58 8.01-2.63 13.29-1.39 12.14 2.86 12.42 3.34 12.42 3.34S1964.47 2583.23 1954.06 2582.68zM1938.59 2588.54c-.99 1.28-.6 3.14.85 3.86.92.46 2.01.32 2.78-.36.64-.56 1.52-1.27 2.62-2-1.01-1.57-1.94-3.18-2.79-4.83C1940.71 2586.18 1939.55 2587.3 1938.59 2588.54z" opacity=".2"/><path fill="#21267f" d="M2178.12,1538.12l-201.1,5.88c0,0,23.99,751.46,4.18,990.7l42.14,2.9
				C2023.34,2537.61,2287.5,1618.97,2178.12,1538.12z"/><path fill="#21267f" d="M2008.64,1639.54c13.37,3.46,27.11,0.65,40.29,5.61c8.6,3.24,16.35,8.44,22.55,15.22
				c23.06,25.22,22.91,65.43,19.08,97.24c-2.45,20.34-9.27,40.95-5.82,61.56c3.83,22.89,20.19,40.81,32.93,59.28
				c10.28,14.89,17.09,30.92,18.82,49.01c1.31,13.64,1.21,27.37,2.25,41.03c1,13.22,2.34,27.62,8.81,39.47
				c1.57,2.87,3.43,5.19,5.53,7.02c46.23-222.33,75.69-439.43,25.03-476.87l-201.1,5.88c0,0,0.92,28.69,2.24,76.51
				C1987.48,1629.31,1996.95,1636.51,2008.64,1639.54z" opacity=".25"/><g><path fill="#efd9d3" d="M2351.51,2559.01c0,0-18.75-57.04-10.89-61.69c7.86-4.65,27.01-7.77,31.76-4.23
					c4.76,3.54,8.18,65.54,1.35,74.18C2366.91,2575.91,2357.05,2574.02,2351.51,2559.01z"/><path fill="#21267f" d="M2299.22,2607.12c0,0,0.5,8.56,8.47,11.48c19.78,7.25,80.59-10.13,82.96-16.2s0.46-13.2,0.46-13.2
					L2299.22,2607.12z"/><path fill="#3339ae" d="M2352.9,2538.53c0,0,16.05-1.48,23.01-4.99c6.32-3.19,18.96,55.06,14.27,62.75
					c-4.69,7.69-44.77,6.61-44.77,6.61s3.49-14.69,4.61-31.42C2351.14,2554.75,2338.41,2543.32,2352.9,2538.53z"/><path fill="#21267f" d="M2339.94,2563.15c0,0-16.57-24.67-5.61-28.27s14.43-2.08,21.16,0.99c6.73,3.07-1.39,24.49-2.17,27.67
					C2352.53,2566.71,2339.94,2563.15,2339.94,2563.15z"/><path fill="#21267f" d="M2325.39,2582.37c0,0,14.21-0.53,20.37,6.37c6.16,6.9,17.71-19.11,12.55-27.1
					c-5.16-7.99-22.06-0.01-22.06-0.01S2341.55,2577.72,2325.39,2582.37z"/><path fill="#606ae8" d="M2301.38,2612.22c11.22,7.09,46.64,4.66,52.86-4.75c6.23-9.42-5.79-39.81-36.97-28.85
					C2304.42,2583.12,2293.52,2607.25,2301.38,2612.22z"/><path fill="#fff" d="M2323.38 2579.56c-4.36.8-7.74 2.27-10.32 4.17 1.21 1.44 2.5 2.8 3.85 4.09 3-2.34 7.19-4.41 12.61-4.42 12.47-.02 12.85.38 12.85.38S2333.63 2577.69 2323.38 2579.56zM2309.68 2588.83c-.66 1.48.14 3.19 1.72 3.56 1 .23 2.03-.15 2.62-.99.49-.69 1.19-1.59 2.09-2.55-1.34-1.29-2.62-2.65-3.83-4.06C2311.19 2586.05 2310.32 2587.4 2309.68 2588.83z" opacity=".2"/><path fill="#21267f" d="M2300.48,1511.49l-194.32,52.11c0,0,192.35,724.12,228.25,961.47l45.66-4.65
				C2380.07,2520.41,2425.57,1564.93,2300.48,1511.49z"/><path fill="#3339ae" d="M2210.75,1660.42c0,0,80.99,46.46,99.92,70.59C2329.59,1755.13,2208.07,1689.9,2210.75,1660.42z"/><path fill="#21267f" d="M2160.71,1733.05c7.82-18.31,20.87-31.7,40.23-37.23c15.66-4.47,32.64-4.9,48.75-3.22
				c17.18,1.79,34.35,6.26,49.61,14.48c14.39,7.76,25.88,19.09,31.86,34.46c7.34,18.85,5.1,38.02,2.67,57.55
				c-1.14,9.14-2.06,18.42-0.71,27.59c1.58,10.73,6.34,20.37,13.22,28.69c9.91,11.99,22.59,22.25,36,30.79
				c-9.39-189.64-32.14-353.44-81.86-374.69l-194.32,52.11c0,0,20.21,76.08,48.73,186.94
				C2156.43,1744.57,2158.3,1738.71,2160.71,1733.05z" opacity=".1"/></g><g><path fill="#eff0f9" d="M623.44,817.51c316.35-56.1,1259.18-68.52,1303.27,10.2c111.39,198.89-15.79,1216.22-15.54,1258.33
				c0,0-1168.59,49.57-1200.68,22.89C678.41,2082.24,536.32,924.6,623.44,817.51z"/><path fill="#e4e5f4" d="M653.55 1642.73c50.62-12.38 117.79-110.49 43.5-411.69-3.47-14.09 10.9-26.74 20.75-37.47 10.96-11.94 22.62-23.33 33.19-35.59 8.47-9.83 16.22-20.49 19.85-32.88 8.88-30.33-9.08-62.21-26.07-86.79-17.84-25.8-39.74-50.5-49.57-80.42-8.59-26.14-5.75-54.56 12.01-76.63 16.98-21.1 42.55-34.69 67.63-45.33 31.46-13.35 64.89-22.69 98.02-31.5 29.53-7.85 59.47-14.79 89.68-20.51-136.9 7.84-258.38 19.3-339.08 33.6-50.91 62.57-23.56 483.77 14.37 828.49C643.07 1644.99 648.34 1644.01 653.55 1642.73zM1949.11 890.62c-2.09 6.02-4.89 11.76-9.13 16.91-.46.56-1 .88-1.57 1.1-.31 7.27-.88 14.52-1.91 21.73-3.83 26.74-13.87 52.17-32.14 73.05-20.9 23.89-48.8 38-74.81 55.94-23.33 16.09-42.08 34.72-51.67 61.02-12.64 34.69-15.95 72.68-7.38 108.56 8.88 37.22 29.46 70.9 48.91 103.86 16.88 28.61 44.83 49.23 63.39 76.68 17.16 25.38 19.93 53.35 9.69 81.74-8.33 23.08-24.74 42.27-44.26 57.75-40.87 32.42-93.28 49.46-132.15 84.32-21 18.84-34.77 43.05-31.8 71.19 3.27 31.01 20.75 59.21 34.88 86.69 14.21 27.63 28.11 57.41 26.51 88.87-1.22 23.86-11.62 46.03-28.63 63.45-15.9 16.29-36.08 28.04-56.08 39.18-19.04 10.61-39.28 20.65-55.1 35.55-25.33 23.85-21.94 52.69-9.66 80.08 179.73-6.52 314.98-12.26 314.98-12.26C1910.94 2047.31 2018.47 1183.83 1949.11 890.62z"/></g><g><path fill="#b8bdf4" d="M929.44 1530.33c-2.28-2.2-3.41-4.92-3.41-8.16 0-48.44-1.4-89.34-4.2-122.71-8.38-.93-14.34-1.4-17.83-1.4-14.34 0-24.65.81-30.94 2.43 0 12.99 1.58 32.57 4.73 58.75 2.79 27.81 4.19 47.52 4.19 59.1 0 2.31-1.05 4.47-3.14 6.43-2.1 1.98-4.73 2.95-7.87 2.95-4.55 0-8.75-5.32-12.59-15.99-5.59-15.75-10.15-48.79-13.64-99.07-2.45-34.07-3.67-70.68-3.67-109.85-.35-7.17-.53-17.38-.53-30.59 0-4.17 2.96-6.26 8.91-6.26 3.49 0 7.09.58 10.75 1.73 3.68 1.16 6.37 2.44 8.13 3.82-1.4 7.42-2.09 16.11-2.09 26.08 0 9.73.69 21.54 2.09 35.45 1.05 16 1.58 28.04 1.58 36.16v6.25c-.35 1.86-.53 4.06-.53 6.6 0 2.31.35 5.34 1.05 9.03 2.1 0 5.59-.12 10.48-.35 4.89-.22 9.78-.57 14.69-1.04 11.53-.7 20.09-1.05 25.68-1.05 0-20.16-.35-38.81-1.04-55.97l-1.05-58.05v-9.38c4.54 0 8.56.52 12.06 1.57 3.49 1.03 6.1 2.37 7.86 3.99 3.15 2.56 5.07 6.95 5.77 13.22v7.99c0 19.94 1.75 58.05 5.26 114.37 3.14 50.98 4.72 89.22 4.72 114.71 0 3.24-1.5 6.14-4.46 8.7-2.98 2.55-6.55 3.81-10.75 3.81C935.11 1533.63 931.7 1532.53 929.44 1530.33zM1085.95 1528.77c-5.96-1.16-8.92-4.41-8.92-9.73v-201.97c0-3.94-1.05-9.85-3.14-17.73-2.45-7.17-3.68-13.09-3.68-17.73v-1.03c5.94-6.49 10.31-10.66 13.11-12.52 4.89 0 11.36-.45 19.4-1.38 7.34-.93 13.8-1.4 19.4-1.4 5.58 0 11.01 1.1 16.25 3.3 5.24 2.21 7.86 4.81 7.86 7.82 0 6.95-8.04 10.43-24.11 10.43h-7.34c-2.1-.23-4.55-.35-7.34-.35-3.14 0-5.07.12-5.77.35 0 7.88.7 17.38 2.1 28.5l1.04 9.74 1.05 19.11c0 4.41-.53 11.13-1.56 20.16l-1.05 19.46 7.33-1.03c6.99-1.4 12.76-2.09 17.32-2.09 3.84 0 7.33.99 10.48 2.95 3.14 1.98 4.72 4.23 4.72 6.78 0 2.79-1.31 5.28-3.93 7.48-2.61 2.21-5.86 3.3-9.7 3.3l-6.29-.35h-6.8c-5.26 0-8.92.81-11.02 2.44v107.41l29.36-1.04c19.93 0 29.89 3.01 29.89 9.03v1.38c-2.09 2.79-5.94 5.05-11.53 6.78-5.59 1.74-11.01 2.84-16.25 3.3l-17.3.35h-16.25C1096.61 1530.5 1090.84 1529.92 1085.95 1528.77zM1283.35 1528.94c-3.67-2.2-5.5-4.81-5.5-7.82 0-2.08.69-4.63 2.09-7.65 1.05-3.24 1.58-5.67 1.58-7.29 0-20.63-1.75-60.26-5.24-118.89-3.5-50.05-5.24-89.56-5.24-118.53 0-2.08 1.21-3.77 3.66-5.03 2.44-1.28 5.42-1.92 8.92-1.92 4.19 0 7.86.99 11.01 2.95 3.14 1.98 4.72 4.35 4.72 7.13 0 13.91 1.05 34.76 3.15 62.57 1.74 30.82 2.61 51.68 2.61 62.56l.53 4.17v4.17 2.43 1.74c1.05 20.16 1.58 50.29 1.58 90.37v9.05h40.37c7.34 3.48 11.01 6.95 11.01 10.43 0 2.55-1.31 4.81-3.93 6.78-2.61 1.97-5.69 2.95-9.18 2.95-1.05 0-2.96-.23-5.77-.7l-2.09-.35c-2.1.23-5.43.35-9.97.35h-8.91c-2.45-.23-5.24-.35-8.4-.35-3.49 2.78-8.38 4.17-14.67 4.17C1291.12 1532.24 1287.03 1531.14 1283.35 1528.94zM1466.88 1528.94c-3.66-2.2-5.5-4.81-5.5-7.82 0-2.08.69-4.63 2.09-7.65 1.05-3.24 1.58-5.67 1.58-7.29 0-20.63-1.75-60.26-5.24-118.89-3.5-50.05-5.24-89.56-5.24-118.53 0-2.08 1.21-3.77 3.66-5.03 2.44-1.28 5.42-1.92 8.92-1.92 4.19 0 7.86.99 11.01 2.95 3.14 1.98 4.72 4.35 4.72 7.13 0 13.91 1.05 34.76 3.15 62.57 1.74 30.82 2.61 51.68 2.61 62.56l.53 4.17v4.17 2.43 1.74c1.05 20.16 1.58 50.29 1.58 90.37v9.05h40.37c7.34 3.48 11.01 6.95 11.01 10.43 0 2.55-1.31 4.81-3.93 6.78-2.61 1.97-5.69 2.95-9.18 2.95-1.05 0-2.96-.23-5.77-.7l-2.09-.35c-2.1.23-5.43.35-9.97.35h-8.91c-2.45-.23-5.24-.35-8.4-.35-3.49 2.78-8.38 4.17-14.67 4.17C1474.65 1532.24 1470.55 1531.14 1466.88 1528.94zM1681.6 1531.89c-7.69-4.17-14.34-9.85-19.93-17.03-10.15-12.51-17.65-29.66-22.54-51.45-3.5-15.06-6.13-32.44-7.87-52.15l-.53-18.42v-18.78c-.35-6.02-.53-13.32-.53-21.89 0-13.91.88-26.2 2.63-36.86 1.39-11.11 4.89-22.13 10.48-33.02 5.59-9.5 13.64-16.22 24.12-20.16 6.29-1.85 12.59-2.78 18.88-2.78 18.51 0 33.2 4.86 44.04 14.6 11.88 10.89 19.75 23.06 23.6 36.5 5.59 16.22 8.73 31.75 9.45 46.58 1.39 16.46 2.09 31.98 2.09 46.59v19.81c0 3.94-.88 11.36-2.61 22.24-1.4 8.58-2.1 15.88-2.1 21.9v1.38c-2.09 6.5-3.14 14.14-3.14 22.95 0 6.49-2.1 13.21-6.29 20.16-4.19 6.95-10.15 12.86-17.83 17.73-7.69 5.56-16.44 8.34-26.22 8.34C1697.85 1538.15 1689.28 1536.07 1681.6 1531.89zM1726.16 1506.18c4.19-7.65 7.25-16.97 9.18-27.99 1.91-11.01 3.58-23.46 4.99-37.37.69-6.02 1.04-13.79 1.04-23.3l-.51-31.97c-.71-12.51-2.8-28.16-6.29-46.93-2.8-16-8.04-30.12-15.74-42.41-3.49-5.79-7.86-10.31-13.11-13.56-5.24-3.24-10.83-4.87-16.78-4.87-8.73 0-15.2 4.52-19.39 13.56-5.26 9.51-8.74 19.94-10.5 31.29-2.09 12.29-3.33 23.99-3.66 35.11l-.53 11.48c-.35 3.24-.53 7.64-.53 13.21v1.38c0 15.53 2.44 34.65 7.34 57.37 5.59 30.82 13.8 52.72 24.65 65.69 6.98 8.12 14.32 12.17 22.02 12.17C1715.33 1519.04 1721.26 1514.75 1726.16 1506.18z"/></g><g><path fill="#eff0f9" d="M611.39,2348.48c-0.54-1.33-54.3-133.06-58.25-173.78l-1.79,0.17c3.97,40.97,57.83,172.95,58.38,174.28
					L611.39,2348.48z"/><path fill="#eff0f9" d="M553.08 2179c0 0 8.76-42.28-5.45-43.89C533.41 2133.49 553.08 2179 553.08 2179zM556.95 2193.41c0 0-25.49-26.94-26.99-18.98C528.47 2182.4 556.95 2193.41 556.95 2193.41zM563.44 2217.69c0 0-21.05-25.46-27.84-19.66C528.8 2203.82 563.44 2217.69 563.44 2217.69zM571.53 2246.08c0 0-26.25-30.37-33.65-22.95C530.48 2230.56 571.53 2246.08 571.53 2246.08zM579.54 2273.71c0 0-36.49-38.64-42.88-28.99C530.28 2254.38 579.54 2273.71 579.54 2273.71zM593.19 2306.59c0 0-47.36-41.78-51.59-33.91C537.36 2280.54 593.19 2306.59 593.19 2306.59zM605.47 2337.66c0 0-49.26-37.67-56.08-28.36C542.58 2318.61 605.47 2337.66 605.47 2337.66zM606.07 2336.04c0 0 3.74-49.16 12.01-41.07C626.36 2303.06 606.07 2336.04 606.07 2336.04zM593.19 2306.59c0 0 4.84-46.16 15.1-41.4C618.55 2269.95 593.19 2306.59 593.19 2306.59zM581.78 2272.69c0 0 6.17-37.33 14.72-33.95C605.05 2242.13 581.78 2272.69 581.78 2272.69zM571.53 2246.08c0 0 11.08-42.53 18.5-35.13C597.45 2218.36 571.53 2246.08 571.53 2246.08zM563.44 2217.69c0 0 9.08-35.69 15.9-30.17C586.17 2193.03 563.44 2217.69 563.44 2217.69zM557.45 2198.04c0 0 9.67-33.8 17.87-29.99C583.53 2171.86 557.45 2198.04 557.45 2198.04z"/></g><g><path fill="#eff0f9" d="M297.19,2023.52c-0.26-0.72-0.05-1.56,0.58-2.08c0.8-0.66,1.98-0.54,2.65,0.26
				c0.36,0.44,37.6,43.6,127.12-11.64c31.95-19.71,55.86-40.95,76.95-59.68c39-34.64,64.77-57.53,101.84-31.39
				c0.84,0.6,1.06,1.77,0.45,2.62c-0.6,0.85-1.77,1.05-2.62,0.45c-34.64-24.43-58.18-3.52-97.18,31.12
				c-20.16,17.9-45.25,40.19-77.47,60.07c-92.5,57.08-131.62,11.29-132.01,10.82C297.37,2023.91,297.26,2023.72,297.19,2023.52z"/></g><path fill="#eff0f9" d="M634 2324.49c0 0-32.24-93.33 8.62-112.6C683.49 2192.62 666.57 2292.9 634 2324.49zM2577.9 2290.17c0 0-32.24-93.33 8.62-112.6C2627.39 2158.3 2610.47 2258.57 2577.9 2290.17z"/><g><path fill="#eff0f9" d="M619.6,2355.11c0,0,29.21-40.63-28.69-77.71C590.91,2277.4,562.84,2337.42,619.6,2355.11z"/><path fill="#b8bdf4" d="M591.61,2281.03l5.69,19.59c1.92,6.51,3.86,13.02,5.96,19.46c1.03,3.23,2.1,6.45,3.23,9.64
						c1.11,3.2,2.29,6.37,3.55,9.51c1.28,3.13,2.61,6.24,4.17,9.23c1.54,3,3.29,5.92,5.74,8.3c-1.35-1.03-2.6-2.24-3.63-3.61
						c-1.08-1.33-2.04-2.76-2.95-4.21c-1.78-2.93-3.33-5.99-4.74-9.1c-2.83-6.23-5.13-12.67-7.24-19.15
						c-2.07-6.5-3.93-13.05-5.56-19.67C594.17,2294.41,592.75,2287.75,591.61,2281.03z" opacity=".52"/></g><g><path fill="#eff0f9" d="M2559.16,2323.94c0,0,23.11-127.66-153.76-149.97C2405.4,2173.97,2406.58,2345.77,2559.16,2323.94z"/><path fill="#b8bdf4" d="M2411.1,2181.7l35.14,39.52c11.76,13.1,23.54,26.17,35.63,38.93c6.01,6.41,12.09,12.76,18.3,18.96
						c6.16,6.25,12.47,12.36,18.91,18.31c6.47,5.91,13.06,11.69,20.04,16.97c6.94,5.31,14.3,10.19,22.68,13.04
						c-4.31-0.92-8.58-2.34-12.52-4.41c-4.01-1.92-7.84-4.2-11.59-6.58c-7.44-4.87-14.46-10.32-21.24-16.03
						c-13.56-11.44-26.12-23.93-38.29-36.75c-12.09-12.9-23.75-26.18-34.93-39.85C2432,2210.17,2421.25,2196.15,2411.1,2181.7z" opacity=".52"/></g><path fill="#e4e5f4" d="M2472.33 1809.34H2447v-22.55h-22.55v-25.33H2447v-22.55h25.33v22.55h22.55v25.33h-22.55V1809.34zM2449.47 1806.88h20.39v-22.55h22.55v-20.39h-22.55v-22.55h-20.39v22.55h-22.55v20.39h22.55V1806.88zM506.34 1772.77l-17.91-17.91 15.95-15.95-15.95-15.95 17.91-17.91 15.95 15.95 15.95-15.95 17.91 17.91-15.95 15.95 15.95 15.95-17.91 17.91-15.95-15.95L506.34 1772.77zM491.92 1754.86l14.42 14.42 15.95-15.95 15.95 15.95 14.42-14.42-15.95-15.95 15.95-15.95-14.42-14.42-15.95 15.95-15.95-15.95-14.42 14.42 15.95 15.95L491.92 1754.86z"/><g><path fill="#eff0f9" d="M2328.35,1581.58c-30.29,30.29-296.42,33.1-346.46,7.19c-50.04-25.91-0.2-590.23,214.44-607.58
				C2373.24,966.9,2328.35,1581.58,2328.35,1581.58z"/><path fill="#21267f" d="M2092.72 1087.45c8.04 6.7 52.99 26.26 83.76 16.75 30.77-9.51 53.61-8.83 65.67-7.1 12.06 1.74 5.36 78.13 5.36 78.13s-53.61 18.09-97.17 0c-43.56-18.09-81.76-15.41-82.43-17.42C2067.26 1155.8 2092.72 1087.45 2092.72 1087.45zM2028.64 1245.77c11.04 6.7 72.74 26.26 114.97 16.75 42.23-9.51 73.58-8.83 90.14-7.1 16.56 1.74 7.36 78.13 7.36 78.13s-73.58 18.09-133.37 0c-59.79-18.09-112.21-15.41-113.13-17.42C1993.69 1314.12 2028.64 1245.77 2028.64 1245.77zM2029.6 1392.34c12.41 6.7 81.79 26.26 129.27 16.75 47.49-9.51 82.74-8.83 101.35-7.1 18.62 1.74 8.27 78.13 8.27 78.13s-82.74 18.09-149.96 0c-67.22-18.09-126.17-15.41-127.21-17.42C1990.3 1460.69 2029.6 1392.34 2029.6 1392.34z"/></g><g><path fill="#efd9d3" d="M1945.52,900c-2.24,7.01-6.79,14.5-10.59,15.95c-2.04,1.64-7.55,23.88-9.09,30.58L1892,945.1l6.2-32.33
						c0,0-1.23-6.77-2.17-18.51c-0.94-11.74-3.55-57.2,1.93-55.69c5.48,1.51,6.63,26.78,6.63,26.78s4.57-40.49,10.52-38.39
						c5.95,2.11,2.83,37.38,2.83,37.38s6.42-44.19,13.08-45.57c6.66-1.38-1.57,46.48-1.57,46.48s13.97-39.86,19.97-38.15
						c6,1.72-8.26,41.92-9.39,50.84c-0.73,5.78,3.09,9.71,7.42,5.4c4.33-4.31,16.46-4.6,18.08-0.34
						C1967.13,887.27,1947.76,892.99,1945.52,900z"/><path fill="#e5c9c3" d="M1917.97,915.78c4.26-0.08,8.51-0.68,12.64-1.74c2.23-0.57,4.45-1.32,6.45-2.46
						c-4.83,5.13-11,8.8-18.39,8.44c-4.14-0.2-9.16-0.88-12.55-3.47c-1.27-0.97-2.35-2.33-3.25-3.87c0.78,0.53,1.59,1,2.48,1.38
						C1909.17,915.68,1913.88,915.86,1917.97,915.78z" opacity=".5"/><path fill="#b8bdf4" d="M2127.33,1008.3l-227.03,125.66l34.81-207.06l-43.11-7.29c0,0-113.28,196.8-79.41,314.25
				c33.87,117.45,216.05,11.91,216.05,11.91L2127.33,1008.3z"/><path fill="#b8bdf4" d="M2053.71,1049.05c-19.44,29.31-35.25,61.05-57.34,88.56c-9.15,11.4-18.93,21.63-31.67,28.98
				c-10.58,6.1-22.57,10.59-31.24,19.49c-10.16,10.44-11.12,25.14-16.13,38.15c-5.25,13.63-15.26,23.26-28.66,28.97
				c-14.84,6.33-31.33,7.55-47.29,7.34c-5.81-0.08-11.51-0.67-17.14-1.57c51.81,75.12,204.4-13.19,204.4-13.19l98.69-237.47
				L2053.71,1049.05z" opacity=".3"/></g><path fill="#b8bdf4" d="M2139.27 1000.2c0 0 11.94 57.99-32.89 141.32-44.83 83.32-56.87 147.62-59.68 211.97-9.95 227.85-74.26 247.96-74.26 247.96s-39.5 4.97-23.48-60.31C1956.46 1510.59 1940.04 1112.5 2139.27 1000.2zM2237.48 990.9c-18.96-.48-65 199.54-15.04 319.26 49.96 119.73-52.17 232.28-15.13 262.02 37.04 29.74 91.52 65.26 160.51 43.69 68.99-21.57-16.53-77.86-26.17-210.1-9.64-132.24-8.21-213.55-8.21-213.55S2336.17 993.4 2237.48 990.9z"/><path fill="#b8bdf4" d="M2341.65,1405.77c-6.58-90.18-8-156.64-8.24-189.81c-7.27-13.25-12.92-27.47-17.61-41.66
			c-6.62-20.04-11.47-40.83-13.81-61.86c-10.5,19.52-13.87,43.37-10.38,64.97c1.93,11.96,6.77,23.28,10.39,34.79
			c3.41,10.84,6.23,21.88,6.69,33.28c0.48,11.96-1.84,23.73-6.54,34.73c-2.75,6.44-6.45,12.38-9.49,18.67
			c-2.93,6.04-5.52,12.25-7.9,18.52c-9.38,24.71-15.74,50.53-28.22,74c-5.63,10.59-12.85,20.06-19.69,29.88
			c-1.71,2.45-3.44,4.95-5.12,7.51c-1.41,7.3-3.07,14.42-4.88,21.37c11.55,0.93,23.38-2.02,34.92-2.22
			c12.88-0.22,25.47,4.24,36.57,10.52c19.91,11.26,35.28,29.49,42.95,50.97c7.73,21.64,10.77,45.95,5.6,68.53
			c-4.42,19.3-15.54,34.54-32.81,43.92c16.78,1.43,34.69-0.06,53.75-6.02C2436.81,1594.3,2351.29,1538.01,2341.65,1405.77z" opacity=".3"/><g><path fill="#eff0f9" d="M2148.7,998.46c2.53-15.32,20.71-29.11,40.61-30.82c19.9-1.7,33.99,9.33,31.47,24.65
				s-20.71,29.11-40.61,30.82C2160.26,1024.82,2146.17,1013.78,2148.7,998.46z"/><path fill="#efd9d3" d="M2163.09,948.05l-4.45,53.68c0,0,36.35,11.49,51.7-11.8l-10.16-43.99L2163.09,948.05z"/><path fill="#e5c9c3" d="M2201.01,949.52c-2.79,15.2-38.06,23.89-35.32,37.5c1.39,6.89,8.33,11.04,14.76,13.13
					c4.26,1.39,8.76,2.04,13.29,2.18c-16.28,5.34-35.1-0.61-35.1-0.61l4.45-53.68L2201.01,949.52z" opacity=".5"/><path fill="#efd9d3" d="M2236.43,874.67c0,0,1.76,83.92-67.87,82.76c-69.63-1.16-29.98-108.24-29.98-108.24
				S2194.68,808.69,2236.43,874.67z"/><path fill="#21267f" d="M2133.14,848.84c0,0,18.06,8.16,23.81,6.34c5.75-1.81,10.94-8.55,10.94-8.55v13.08
				c0,0,55.99,27.47,74.11,14.64C2260.13,861.53,2169.96,773.62,2133.14,848.84z"/><path fill="#efd9d3" d="M2227.43,887.16c0,0,9.97-7.58,15.59-2c5.62,5.58-7.64,36.74-17.75,27.7
					C2215.17,903.81,2227.43,887.16,2227.43,887.16z"/><path fill="#21267f" d="M2229.8 892.1c.36.06.73-.09.94-.41.03-.04 2.64-3.92 5.68-4.1 1.32-.07 2.53.56 3.71 1.94.34.4.93.44 1.32.11.4-.34.44-.93.11-1.32-1.57-1.84-3.33-2.72-5.26-2.59-3.97.24-7 4.74-7.13 4.93-.29.43-.17 1.01.26 1.3C2229.55 892.03 2229.67 892.08 2229.8 892.1zM2206.16 888.55c0 0-16.89-1.41-18.54-3.13-1.65-1.72 3.76-5.06 11.16-2.93S2208.1 888.56 2206.16 888.55zM2190.55 895.39c-.46 2.7 1.03 5.19 3.31 5.57 2.28.38 4.5-1.48 4.95-4.18.46-2.7-1.03-5.2-3.31-5.59-.64-.11-1.27-.04-1.87.19.77.38 1.22 1.35 1.05 2.38-.21 1.22-1.22 2.07-2.25 1.9-.76-.13-1.33-.78-1.49-1.6C2190.76 894.49 2190.63 894.92 2190.55 895.39zM2162.26 881.14c0 0-16.89-1.41-18.54-3.13-1.65-1.72 3.76-5.06 11.16-2.93C2162.28 877.21 2164.2 881.15 2162.26 881.14zM2146.65 887.98c-.46 2.7 1.03 5.19 3.31 5.57 2.28.38 4.5-1.48 4.95-4.18.46-2.7-1.03-5.2-3.31-5.59-.64-.11-1.27-.04-1.87.19.77.38 1.22 1.35 1.05 2.38-.2 1.22-1.22 2.07-2.25 1.9-.76-.13-1.33-.78-1.49-1.6C2146.86 887.08 2146.73 887.51 2146.65 887.98zM2169.01 906.08c.31.05.65-.06.87-.32.33-.39.28-.98-.11-1.31-1.85-1.55-2.07-2.33-2.04-2.66.06-.67 1.37-1.43 2.77-2.22.85-.48 1.8-1.03 2.73-1.69 4.39-3.14 5.1-13.45 5.13-13.88.03-.51-.35-.96-.87-.99-.51-.03-.95.36-.99.87-.18 2.74-1.3 10.31-4.35 12.49-.85.61-1.73 1.11-2.57 1.59-1.9 1.09-3.55 2.03-3.7 3.67-.11 1.27.72 2.58 2.7 4.25C2168.7 905.98 2168.85 906.05 2169.01 906.08z"/><g><path fill="#21267f" d="M2149.86,920.12c-0.32,0.03-0.64,0.15-0.92,0.36c-0.77,0.6-0.9,1.7-0.31,2.47c0.16,0.2,3.96,4.99,10.86,5.6
					c5.89,0.53,12.09-2.1,18.44-7.81c0.72-0.65,0.78-1.76,0.13-2.48c-0.65-0.72-1.76-0.78-2.48-0.13
					c-5.6,5.03-10.91,7.36-15.78,6.92c-5.4-0.48-8.37-4.22-8.4-4.26C2151.03,920.3,2150.44,920.07,2149.86,920.12z"/></g><path fill="#e5c9c3" d="M2187.33 915.72c0 4.1 4.84 7.42 10.8 7.42 5.97 0 10.8-3.32 10.8-7.42 0-4.1-4.84-7.42-10.8-7.42C2192.17 908.3 2187.33 911.62 2187.33 915.72zM2131.34 902.61c0 3.28 3.87 5.94 8.64 5.94 4.77 0 8.64-2.66 8.64-5.94 0-3.28-3.87-5.94-8.64-5.94C2135.21 896.68 2131.34 899.33 2131.34 902.61z" opacity=".5"/></g><g><path fill="#eff0f9" d="M1332.06 369.31v200.94h7.29V369.25C1336.92 369.27 1334.49 369.29 1332.06 369.31zM1380.86 684.66c0 24.93-20.22 45.15-45.15 45.15-24.95 0-45.15-20.21-45.15-45.15 0-24.94 20.2-45.15 45.15-45.15C1360.64 639.52 1380.86 659.73 1380.86 684.66z"/><path fill="#efd9d3" d="M1381.73,594.23c0.01-0.01,0.01-0.01,0.02-0.02c0.15-0.22,0.99-1.65,0.69-1.96
				c-8.5-8.49-12.35-27.4-12.35-27.4c-5.24-4.91-29.83-5.06-34.35-5.06c-4.51,0-29.09,0.16-34.33,5.06c0,0-3.85,18.91-12.35,27.4
				c-0.38,0.38,0.03,1.16,0.66,1.98c-45.95,15.42-78.48,53.2-78.48,97.38h248.95C1460.18,647.44,1427.68,609.65,1381.73,594.23z"/><path fill="#e5c9c3" d="M1343.15,563.2c7.18,3.35,18.39,8.97,14.55,18.8c-2.96,7.59-12.85,11.59-19.95,14.39
				c24.85,3.93,50.24,9.37,68.13,27.63c8.08,8.26,13.38,21.33,9.85,32.86c-3.08,10.05-12.43,13.13-22.09,13.18
				c-12.68,0.06-25.07-3.7-37.75-3.56c-15.68,0.16-25.41,10.86-39.24,16.28c-14.82,5.8-30.74,5.11-46.29,7.25
				c-3.56,0.49-7.13,1.04-10.71,1.57h200.51c0-44.17-32.5-81.96-78.45-97.37c0.01-0.01,0.01-0.01,0.02-0.02
				c0.15-0.22,0.99-1.65,0.69-1.96c-8.5-8.49-12.35-27.4-12.35-27.4c-5.24-4.91-29.83-5.06-34.35-5.06c-0.21,0-0.66,0.01-0.95,0.01
				C1337.63,560.85,1340.46,561.95,1343.15,563.2z"/></g><g><path fill="#797dff" d="M2069.83,1313.46c0,0-45.6,0.69-73.46,13.33c-27.86,12.64-75.34-1.37-75.34-1.37l-4.24,17.06
					C1916.79,1342.48,2018.48,1371.76,2069.83,1313.46z"/><path fill="#606ae8" d="M2114.23,1348.41c0,0,6.42-42.25-1.16-49.27c-7.58-7.02-19.97-0.31-19.97-0.31l-25.16,16.91
					c0,0-111.74,35.61-151.15,26.74c0,0,58.66,44.74,79.84,103.13c21.18,58.39,27.04,84.81,27.04,84.81s25.96-12.32,68.03-18.27
					C2133.78,1506.19,2114.23,1348.41,2114.23,1348.41z"/><path fill="#797dff" d="M2067.94,1315.75c0,0,54.84-39.83,43.01-0.56c-11.84,39.27-136.46,60.77-136.46,60.77
					s127.4,130.84,110.25,184.74c0,0,28.9,2.85,68.53,22.46c39.63,19.61,59.37-24.94,52.48-64.9c0,0-79.78-212.53-91.59-224.21
					C2102.34,1282.38,2067.94,1315.75,2067.94,1315.75z"/><path fill="#b8bdf4" d="M2107.01,1582.02c0,0,24.84-7.69,65.53-15.92c14.08-2.81,34.1-8.47,31.72-41.37
					c-0.62-8.36-5.69-26.28-13.17-48.63c-7.73-23.13-18.05-51.09-28.7-78.05c-19.48-49.19-40.09-95.33-48.16-103.88
					c1.69,2.46,29.65,45.02-18.57,74.28c-48.02,29.12-72.23,22.96-73.78,22.57C2024.43,1393.99,2119.46,1504.46,2107.01,1582.02z"/><g opacity=".35"><path fill="#eff0f9" d="M2101.05 1392.74c-.08-.11-.16-.22-.24-.34 23.59-15.76 32.05-37.01 32.17-37.31.27-.7 1.06-1.05 1.75-.79.7.27 1.05 1.05.79 1.75-.12.31-8.84 22.28-33.12 38.55C2101.94 1393.98 2101.5 1393.35 2101.05 1392.74zM2064.72 1407.01c10.81-2.06 19.99-5.56 27.89-9.73.26.36.52.73.78 1.09.27.38.54.75.81 1.13-8.19 4.37-17.73 8.03-28.98 10.18l-.02 0c-.73.13-1.42-.35-1.56-1.08C2063.5 1407.86 2063.99 1407.15 2064.72 1407.01zM2126.93 1395.43c9.92-11.13 13.62-21.06 13.7-21.26.25-.7 1.02-1.07 1.73-.82.7.25 1.07 1.02.83 1.73-.08.21-3.95 10.71-14.42 22.37C2128.12 1396.8 2127.5 1396.13 2126.93 1395.43zM2071.71 1424.67c.45-.15.72-.12 1.07-.18 22.55-3.89 38.16-13.62 48.7-23.49.59.68 1.2 1.33 1.85 1.97-10.87 10.19-26.93 20.2-50.09 24.2-.36.06-.72.12-1.08.18-.74.12-1.44-.38-1.55-1.12C2070.49 1425.49 2070.98 1424.79 2071.71 1424.67zM2078.72 1442.31c11.32-1.53 20.84-4.53 28.95-8.26.31.86.63 1.71.99 2.55-7.27 3.32-15.67 6.06-25.4 7.74-1.36.23-2.76.45-4.17.64-.74.1-1.42-.42-1.53-1.16C2077.46 1443.1 2077.99 1442.38 2078.72 1442.31zM2114.58 1430.52c25.83-14.78 33.58-36.97 33.68-37.27.24-.71 1.01-1.1 1.71-.86.71.23 1.1 1 .86 1.71-.1.32-8.15 23.67-35.28 39C2115.21 1432.24 2114.88 1431.38 2114.58 1430.52zM2093.27 1461.63c52.71-9.1 65.1-48.11 65.23-48.52.21-.71-.19-1.47-.9-1.69-.71-.22-1.47.18-1.69.9-.13.41-13.14 41.26-70.19 47.65-.76.05-1.28.76-1.19 1.5.08.74.75 1.28 1.5 1.19C2088.52 1462.38 2090.93 1462.03 2093.27 1461.63zM2092.72 1477.62c12.73-1.13 23.15-3.97 31.85-7.66.45.79.86 1.61 1.31 2.4-6.52 2.78-13.95 5.12-22.61 6.62-3.27.56-6.71 1.02-10.31 1.33-.74.07-1.4-.48-1.47-1.23C2091.42 1478.34 2092.05 1477.69 2092.72 1477.62zM2131.53 1466.65c25.57-13.75 31.94-34.95 32.02-35.25.2-.73.96-1.14 1.67-.94.72.2 1.14.95.94 1.66-.09.31-6.69 22.58-33.33 36.91C2132.38 1468.25 2131.98 1467.44 2131.53 1466.65zM2154.31 1475.09c13.41-11.81 16.83-24.38 16.89-24.6.18-.73.92-1.17 1.64-.98.73.18 1.16.92.98 1.64-.06.24-3.71 13.65-17.91 26.11C2155.41 1476.51 2154.87 1475.79 2154.31 1475.09zM2099.71 1495.27c22.28-1.5 37.79-7.93 48.55-15.45.41.51.82 1.02 1.2 1.55.15.21.3.43.45.65-8.82 6.19-20.71 11.63-36.67 14.39-4.16.72-8.61 1.25-13.34 1.57-.75.05-1.39-.51-1.44-1.26C2098.4 1495.97 2098.98 1495.29 2099.71 1495.27zM2167.77 1488.42c8.78-9.73 11.04-18.67 11.08-18.86.16-.73.89-1.18 1.62-1.02.73.16 1.19.89 1.02 1.62-.05.21-2.55 10.25-12.46 20.86C2168.59 1490.16 2168.16 1489.3 2167.77 1488.42zM2161.93 1494.07c.42.81.84 1.62 1.28 2.42-6.14 5.12-14.21 10.01-24.88 13.58-.02-.06-.05-.12-.08-.18-.12-.34-.26-.69-.35-1.04.24.96-.02-.06-.06-.21-.11-.38-.21-.77-.32-1.15C2148.08 1503.95 2155.99 1499.11 2161.93 1494.07zM2106.7 1512.93c8.89-.42 16.59-1.65 23.47-3.35.25.89.5 1.77.79 2.65-2.49.62-5.05 1.2-7.78 1.67-5.02.87-10.46 1.47-16.35 1.74-.75.04-1.38-.54-1.42-1.29C2105.38 1513.6 2106 1512.95 2106.7 1512.93zM2159.82 1519.63c22.54-12.35 26.62-30.72 26.67-30.99.14-.73.85-1.2 1.59-1.06.73.15 1.21.86 1.07 1.59-.06.29-4.37 19.99-28.31 32.99C2160.5 1521.31 2160.15 1520.48 2159.82 1519.63zM2113.69 1530.58c16.47-.45 29.23-3.44 39.17-7.6.33.83.68 1.65 1.01 2.48-5.93 2.49-12.74 4.6-20.78 5.98-5.83 1.01-12.25 1.65-19.32 1.85-.75.02-1.37-.57-1.39-1.32C2112.36 1531.23 2112.96 1530.6 2113.69 1530.58zM2148.05 1545.16c40.53-9.33 46.04-37.11 46.09-37.44.13-.74.83-1.23 1.57-1.1.73.13 1.23.82 1.11 1.56-.06.35-5.72 29.85-47.97 39.62C2148.53 1546.94 2148.31 1546.03 2148.05 1545.16zM2120.69 1548.24c7.33-.07 13.83-.68 19.79-1.6.26.88.46 1.78.76 2.64-6.17.97-12.93 1.6-20.53 1.67-.75.01-1.36-.6-1.36-1.34C2119.34 1548.85 2119.95 1548.23 2120.69 1548.24z"/></g><path fill="#916640" d="M2179.61,1474.57l11.48,1.54c-7.73-23.13-18.05-51.09-28.7-78.05l-2.21,3.82
						c-4.61,5.45,1.61,20.41,1.61,20.41s-18.38,23.45-55.04,17.74C2106.75,1440.03,2105.27,1488.49,2179.61,1474.57z" opacity=".19"/><path fill="#efd9d3" d="M2125.2,1466.92c0.96-5.24,24.46-8.38,24.46-8.38s-38.18-0.95-36.7-6.68c1.48-5.72,34.67-5.7,34.67-5.7
						s-41.78-2.37-43.61-8.48c-1.83-6.1,43.53-2.34,43.53-2.34s-38.36-9.78-37.25-15.52c1.11-5.74,39.81,4.28,48.23,4.61
						c5.46,0.21,8.82-3.68,4.43-7.37c-4.38-3.69-5.64-14.99-1.8-16.85c3.84-1.86,10.77,15.75,17.5,17.27
						c6.73,1.52,14.1,5.16,15.76,8.58c6.38,6.65,18.57-7.06,18.57-7.06c0.41,2.53,18.79,21.54,4.91,30.94l-22.27,9.74
						c0,0-7.4,2.64-18.28,4.48C2166.47,1466.01,2124.24,1472.16,2125.2,1466.92z"/><path fill="#b8bdf4" d="M2294.91,1023.29c0,0,165.56,116.88,174.06,243.99c6.7,100.14-261.87,193.63-261.87,193.63l-6.62-35.93
						l132.96-147.2C2333.44,1277.78,2261.13,1047.34,2294.91,1023.29z"/><g opacity=".5"><path fill="#eff0f9" d="M2161.91 1400.57c1.35.12 2.6 2.22 3.09 3.09 0 0-1.01 1.75-1.87.92C2162.26 1403.75 2160.56 1400.45 2161.91 1400.57zM2110.88 1419.89c.61-1.26 5.02-.91 5.37-.55 0 0-.94 3.47-1.37 3.99C2114.45 1423.85 2110.26 1421.15 2110.88 1419.89zM2105.29 1437.62c.25-1.38 4.59-2.22 5.02-1.97 0 0 .03 3.59-.24 4.21C2109.8 1440.47 2105.05 1439 2105.29 1437.62zM2114.57 1452.17c.19-1.39 4.48-2.43 4.92-2.2 0 0 .19 3.59-.05 4.21C2119.2 1454.81 2114.38 1453.56 2114.57 1452.17zM2126.29 1466.85c.05-1.17 3.53-2.36 3.92-2.2 0 0 .44 2.96.28 3.5S2126.24 1468.01 2126.29 1466.85z"/></g></g><g><path fill="#797dff" d="M991.35,606.15c-20.62,16.52-42.58,15.89-60.43,13.11c2.35-2.43,4.71-4.86,7.08-7.29
			c-1.95-2.37-3.92-4.74-5.89-7.1c0.03-0.09,30.47,4.58,41.94-3.23c1.22,1.78,2.44,3.56,3.65,5.35
			C977.7,606.99,983.84,608.47,991.35,606.15z"/><path fill="#b8bdf4" d="M737.29,722.78c-0.04-0.01-9.68,14.84-8.55,18.91c-1.5-0.68-3-1.35-4.51-2.02c-1.24,0.17-2.49,0.35-3.73,0.53
			c0,0,2.22-11.94,7.31-20.21c1.24,0.86,2.48,1.72,3.72,2.58C733.45,722.64,735.37,722.71,737.29,722.78z"/><path fill="#797dff" d="M887.39,675.7c-0.01,0,11.74,0.77,22.6,7.14c-1.22,1.19-2.44,2.38-3.65,3.58c0.41,1.63,0.83,3.25,1.24,4.88
			c0.02-0.04-18.3-4.96-24.32-4.46c-0.52-2.05-1.04-4.1-1.57-6.15C883.58,679.03,885.48,677.36,887.39,675.7z"/><path fill="#b8bdf4" d="M1018.05 696.2c.01 0-7.68-6.4-17.78-9.73.13 1.34.27 2.67.4 4-1.06.24-2.12.48-3.19.72 0-.01 8.38 2.13 13.79 6.43.28-.69.57-1.38.86-2.07C1014.1 695.76 1016.07 695.98 1018.05 696.2zM761.62 577.84c.1-.14 35.6 12.7 40.51 13.98-2.72.36-5.44.73-8.16 1.1 1.06 1.78 2.11 3.56 3.16 5.34.09-.16-37.4-11.2-41.75-11.7 1.81-1.07 3.62-2.13 5.43-3.19C761.08 581.53 761.35 579.68 761.62 577.84z"/></g><g><path fill="#797dff" d="M1240.06,853.77c-20.7,16.41-42.66,15.67-60.5,12.79c2.36-2.42,4.74-4.84,7.12-7.25
			c-1.94-2.38-3.89-4.76-5.86-7.13c0.03-0.09,30.45,4.74,41.96-3.01c1.21,1.79,2.42,3.58,3.62,5.37
			C1226.42,854.53,1232.55,856.05,1240.06,853.77z"/><path fill="#b8bdf4" d="M985.4,969.06c-0.04-0.01-9.75,14.79-8.65,18.87c-1.5-0.68-2.99-1.36-4.5-2.04
			c-1.25,0.17-2.49,0.34-3.74,0.51c0,0,2.28-11.92,7.42-20.17c1.24,0.86,2.47,1.73,3.7,2.6C981.56,968.9,983.48,968.98,985.4,969.06
			z"/><path fill="#797dff" d="M1135.74,922.77c-0.01,0,11.73,0.83,22.57,7.26c-1.23,1.18-2.45,2.37-3.67,3.56
			c0.41,1.63,0.81,3.26,1.21,4.88c0.02-0.04-18.27-5.05-24.3-4.58c-0.51-2.05-1.02-4.1-1.54-6.15
			C1131.92,926.07,1133.83,924.42,1135.74,922.77z"/><path fill="#b8bdf4" d="M1266.29 943.95c0 0-7.65-6.44-17.73-9.82.13 1.34.25 2.67.38 4.01-1.06.23-2.13.47-3.19.7 0 0 8.36 2.17 13.75 6.5.29-.69.58-1.38.87-2.07C1262.34 943.49 1264.31 943.72 1266.29 943.95zM1010.49 824.25c.1-.14 35.53 12.89 40.43 14.19-2.72.35-5.44.7-8.16 1.06 1.05 1.78 2.09 3.57 3.13 5.35.09-.16-37.34-11.4-41.69-11.92 1.81-1.06 3.63-2.11 5.45-3.17C1009.93 827.93 1010.21 826.09 1010.49 824.25z"/></g><g><path fill="#797dff" d="M1905.33,577.66c-7.02,31.97-28.03,43.02-46.66,49.02c0.43-4.28,0.86-8.57,1.3-12.85
			c-3.55-1.91-7.12-3.81-10.7-5.69c-0.04-0.1,31.77-10.6,36.65-26.63c2.46,1.55,4.9,3.11,7.34,4.67
			C1893.27,586.18,1900.07,584.68,1905.33,577.66z"/><path fill="#b8bdf4" d="M1749.03 852.42c-.02 0 .67 23.07 4.28 27.69-1.82-.17-3.64-.34-5.46-.5-1.04.78-2.08 1.57-3.11 2.35.01 0-5.61-16.01-6.33-28.69 1.72.51 3.43 1.02 5.14 1.54C1745.37 854.01 1747.2 853.21 1749.03 852.42zM1857.57 720.1c-.02.01 11.48-5.07 25.88-2.69-.34 2.14-.68 4.27-1.02 6.41 1.47 1.84 2.93 3.67 4.39 5.51 0-.04-20.35 3.21-25.64 6.91-1.85-2.32-3.71-4.63-5.57-6.94C1856.26 726.23 1856.91 723.16 1857.57 720.1zM1993.11 676.29c.01 0-11.4-3.85-23.05-2.53 1.02 1.62 2.03 3.23 3.04 4.85-.83.89-1.66 1.77-2.49 2.66-.01 0 9.23-1.89 17.11.58-.19-1.03-.37-2.07-.56-3.1C1989.14 677.93 1991.12 677.11 1993.11 676.29zM1668.93 661.97c.03-.2 43.36-2.07 48.88-2.97-2.29 1.8-4.58 3.6-6.85 5.4 2.34 1.65 4.66 3.3 6.98 4.96.01-.21-43.69 4.75-48.24 6.23.9-2.18 1.8-4.35 2.71-6.53C1671.25 666.7 1670.09 664.34 1668.93 661.97z"/></g><g><path fill="#797dff" d="M1595.2,1012.32c-22.59-8.66-26.54-20.53-26.58-30.57c3.16,0.95,6.32,1.92,9.47,2.9
			c2.31-1.34,4.62-2.68,6.94-4.02c-0.01,0.01,0.4,16.89,11.5,21.97c-1.72,0.87-3.43,1.74-5.15,2.61
			C1591.38,1005.22,1591.03,1008.67,1595.2,1012.32z"/><path fill="#b8bdf4" d="M1423.45 885.72c.02-.03-18.61-3.61-23.52-2.22.74-1.04 1.47-2.08 2.21-3.12-.28-.74-.55-1.49-.83-2.23 0-.01 14.71-.53 25.03 1.38-.99.88-1.98 1.77-2.97 2.65C1423.41 883.36 1423.43 884.54 1423.45 885.72zM1496.95 966.15c.01 0 1.16 6.74-3.85 14.01-1.58-.47-3.17-.93-4.76-1.39-1.75.54-3.5 1.07-5.25 1.62-.01 0 2-11.29.42-14.63 2.24-.66 4.49-1.32 6.74-1.97C1492.49 964.57 1494.72 965.36 1496.95 966.15zM1504.89 1042.55c0 0 4.55-5.57 5.42-11.74-1.39.35-2.79.71-4.18 1.07-.54-.53-1.09-1.06-1.64-1.58 0 0-.02 5.01-3.05 8.9.81 0 1.63 0 2.44 0C1504.22 1040.32 1504.56 1041.43 1504.89 1042.55zM1600.07 886.17c-.05-.02-14.27 19.92-15.24 22.76-.59-1.47-1.18-2.93-1.77-4.4-2.07.69-4.13 1.37-6.2 2.07-.05-.01 11.75-21.18 12.56-23.52 1.32.95 2.63 1.9 3.95 2.85C1595.6 886 1597.83 886.08 1600.07 886.17z"/></g></svg>